<?xml version="1.0" encoding="utf-8"?>
<!-- Generator: Adobe Illustrator 21.1.0, SVG Export Plug-In . SVG Version: 6.00 Build 0)  -->
<svg version="1.1" id="Layer_1" xmlns="http://www.w3.org/2000/svg" xmlns:xlink="http://www.w3.org/1999/xlink" x="0px" y="0px"
	 viewBox="0 0 448.7 106.7" style="enable-background:new 0 0 448.7 106.7;" xml:space="preserve">
<style type="text/css">
	.st0{fill:#010101;}
	.st1{fill:#FFFFFF;}
	.st2{fill:#424143;}
	.st3{fill:#9ECC3D;}
	.st4{fill:#BBD86D;}
	.st5{fill:#00A3CD;}
	.st6{fill:#57BDDA;}
	.st7{fill:#17AECF;}
	.st8{fill:#86C544;}
	.st9{fill:none;}
</style>
<symbol  id="Deleted_Symbol" viewBox="-347.1 -347.1 694.3 694.3">
	<rect x="-347.1" y="-347.1" class="st0" width="694.3" height="694.3"/>
	<use xlink:href="#red4"  width="694.3" height="694.3" x="-347.1" y="-347.1" style="overflow:visible;"/>
</symbol>
<symbol  id="red4" viewBox="-347.1 -347.1 694.3 694.3">
	<path class="st1" d="M-347.1,347.1v-694.3h694.3v694.3H-347.1z M345.1,310l-30.4-17.6L284.2,310v35.2h60.9V310z M345.1,200.8
		l-30.4-17.6l-30.5,17.6V236l30.5,17.6l30.4-17.6V200.8z M345.1,91.6L314.7,74l-30.5,17.6v35.2l30.5,17.6l30.4-17.6V91.6z
		 M345.1-17.7l-30.4-17.6l-30.5,17.6v35.2l30.5,17.6l30.4-17.6V-17.7z M345.1-126.8l-30.4-17.6l-30.5,17.6v35.2L314.7-74l30.4-17.6
		V-126.8z M345.1-235.9l-30.4-17.6l-30.5,17.6v35.2l30.5,17.6l30.4-17.6V-235.9z M-221.3,17.5v-35.2l-30.5-17.6l-30.5,17.6v35.2
		l30.5,17.6L-221.3,17.5z M-250.8,37v35.2l30.5,17.6l30.5-17.6V37l-30.5-17.6L-250.8,37z M-250.8-37l30.5,17.6l30.5-17.6v-35.2
		l-30.5-17.6l-30.5,17.6V-37z M-219.3-17.7v35.2l30.5,17.6l30.5-17.6v-35.2l-30.5-17.6L-219.3-17.7z M-187.8,37v35.2l30.5,17.6
		l30.5-17.6V37l-30.5-17.6L-187.8,37z M-187.8-37l30.5,17.6l30.5-17.6v-35.2l-30.5-17.6l-30.5,17.6V-37z M-156.3-17.7v35.2
		l30.5,17.6l30.5-17.6v-35.2l-30.5-17.6L-156.3-17.7z M-124.9,37v35.2l30.5,17.6L-64,72.2V37l-30.5-17.6L-124.9,37z M-124.9-37
		l30.5,17.6L-64-37v-35.2l-30.5-17.6l-30.5,17.6V-37z M-93.4-17.7v35.2l30.5,17.6l30.5-17.6v-35.2l-30.5-17.6L-93.4-17.7z M-62,37
		v35.2l30.5,17.6L-1,72.2V37l-30.5-17.6L-62,37z M-62-37l30.5,17.6L-1-37v-35.2l-30.5-17.6L-62-72.2V-37z M-30.5-17.7v35.2L0,35.1
		l30.5-17.6v-35.2L0-35.2L-30.5-17.7z M1,37v35.2l30.5,17.6l30.5-17.6V37L31.5,19.4L1,37z M1-37l30.5,17.6L61.9-37v-35.2L31.5-89.8
		L1-72.2V-37z M32.5-17.7v35.2L63,35.1l30.5-17.6v-35.2L63-35.2L32.5-17.7z M63.9,37v35.2l30.5,17.6l30.5-17.6V37L94.4,19.4L63.9,37
		z M63.9-37l30.5,17.6L124.9-37v-35.2L94.4-89.8L63.9-72.2V-37z M95.4-17.7v35.2l30.5,17.6l30.5-17.6v-35.2l-30.5-17.6L95.4-17.7z
		 M126.9,37v35.2l30.5,17.6l30.5-17.6V37l-30.5-17.6L126.9,37z M126.9-37l30.5,17.6L187.8-37v-35.2l-30.5-17.6l-30.5,17.6V-37z
		 M158.4-17.7v35.2l30.5,17.6l30.5-17.6v-35.2l-30.5-17.6L158.4-17.7z M189.8,37v35.2l30.5,17.6l30.5-17.6V37l-30.5-17.6L189.8,37z
		 M189.8-37l30.5,17.6L250.7-37v-35.2l-30.5-17.6l-30.5,17.6V-37z M221.3-17.7v35.2l30.5,17.6l30.5-17.6v-35.2l-30.5-17.6
		L221.3-17.7z M221.3,91.6v35.2l30.5,17.6l30.5-17.6V91.6L251.8,74L221.3,91.6z M250.7,146.2l-30.5-17.6l-30.5,17.6v35.2l30.5,17.6
		l30.5-17.6V146.2z M219.3,126.8V91.6L188.8,74l-30.5,17.6v35.2l30.5,17.6L219.3,126.8z M187.8,146.2l-30.5-17.6l-30.5,17.6v35.2
		l30.5,17.6l30.5-17.6V146.2z M156.4,126.8V91.6L125.9,74L95.4,91.6v35.2l30.5,17.6L156.4,126.8z M124.9,146.2l-30.5-17.6
		l-30.5,17.6v35.2l30.5,17.6l30.5-17.6V146.2z M93.4,126.8V91.6L63,74L32.5,91.6v35.2L63,144.4L93.4,126.8z M61.9,146.2l-30.5-17.6
		L1,146.2v35.2l30.5,17.6l30.5-17.6V146.2z M30.5,126.8V91.6L0,74l-30.5,17.6v35.2L0,144.4L30.5,126.8z M-1,146.2l-30.5-17.6
		L-62,146.2v35.2l30.5,17.6L-1,181.3V146.2z M-32.5,126.8V91.6L-62.9,74l-30.5,17.6v35.2l30.5,17.6L-32.5,126.8z M-64,146.2
		l-30.5-17.6l-30.5,17.6v35.2l30.5,17.6l30.5-17.6V146.2z M-95.4,126.8V91.6L-125.9,74l-30.5,17.6v35.2l30.5,17.6L-95.4,126.8z
		 M-126.9,146.2l-30.5-17.6l-30.5,17.6v35.2l30.5,17.6l30.5-17.6V146.2z M-158.3,126.8V91.6L-188.8,74l-30.5,17.6v35.2l30.5,17.6
		L-158.3,126.8z M-189.8,146.2l-30.5-17.6l-30.5,17.6v35.2l30.5,17.6l30.5-17.6V146.2z M-221.3,126.8V91.6L-251.7,74l-30.5,17.6
		v35.2l30.5,17.6L-221.3,126.8z M-252.8,146.2l-30.5-17.6l-30.5,17.6v35.2l30.5,17.6l30.5-17.6V146.2z M-252.8,72.2V37l-30.5-17.6
		L-313.7,37v35.2l30.5,17.6L-252.8,72.2z M-252.8-37v-35.2l-30.5-17.6l-30.5,17.6V-37l30.5,17.6L-252.8-37z M-252.8-146.2v-35.2
		l-30.5-17.6l-30.5,17.6v35.2l30.5,17.6L-252.8-146.2z M-282.2-126.8v35.2l30.5,17.6l30.5-17.6v-35.2l-30.5-17.6L-282.2-126.8z
		 M-250.8-146.2l30.5,17.6l30.5-17.6v-35.2l-30.5-17.6l-30.5,17.6V-146.2z M-219.3-126.8v35.2l30.5,17.6l30.5-17.6v-35.2l-30.5-17.6
		L-219.3-126.8z M-187.8-146.2l30.5,17.6l30.5-17.6v-35.2l-30.5-17.6l-30.5,17.6V-146.2z M-156.3-126.8v35.2l30.5,17.6l30.5-17.6
		v-35.2l-30.5-17.6L-156.3-126.8z M-124.9-146.2l30.5,17.6l30.5-17.6v-35.2l-30.5-17.6l-30.5,17.6V-146.2z M-93.4-126.8v35.2
		L-62.9-74l30.5-17.6v-35.2l-30.5-17.6L-93.4-126.8z M-62-146.2l30.5,17.6L-1-146.2v-35.2l-30.5-17.6L-62-181.3V-146.2z
		 M-30.5-126.8v35.2L0-74l30.5-17.6v-35.2L0-144.4L-30.5-126.8z M1-146.2l30.5,17.6l30.5-17.6v-35.2l-30.5-17.6L1-181.3V-146.2z
		 M32.5-126.8v35.2L63-74l30.5-17.6v-35.2L63-144.4L32.5-126.8z M63.9-146.2l30.5,17.6l30.5-17.6v-35.2l-30.5-17.6l-30.5,17.6
		V-146.2z M95.4-126.8v35.2L125.9-74l30.5-17.6v-35.2l-30.5-17.6L95.4-126.8z M126.9-146.2l30.5,17.6l30.5-17.6v-35.2l-30.5-17.6
		l-30.5,17.6V-146.2z M158.4-126.8v35.2L188.8-74l30.5-17.6v-35.2l-30.5-17.6L158.4-126.8z M189.8-146.2l30.5,17.6l30.5-17.6v-35.2
		l-30.5-17.6l-30.5,17.6V-146.2z M221.3-126.8v35.2L251.8-74l30.5-17.6v-35.2l-30.5-17.6L221.3-126.8z M252.7-146.2l30.5,17.6
		l30.5-17.6v-35.2l-30.5-17.6l-30.5,17.6V-146.2z M252.7-72.2V-37l30.5,17.6L313.7-37v-35.2l-30.5-17.6L252.7-72.2z M252.7,37v35.2
		l30.5,17.6l30.5-17.6V37l-30.5-17.6L252.7,37z M252.7,146.2v35.2l30.5,17.6l30.5-17.6v-35.2l-30.5-17.6L252.7,146.2z M252.7,255.4
		v35.2l30.5,17.6l30.5-17.6v-35.2l-30.5-17.6L252.7,255.4z M282.2,236v-35.2l-30.5-17.6l-30.5,17.6V236l30.5,17.6L282.2,236z
		 M250.7,255.4l-30.5-17.6l-30.5,17.6v35.2l30.5,17.6l30.5-17.6V255.4z M219.3,236v-35.2l-30.5-17.6l-30.5,17.6V236l30.5,17.6
		L219.3,236z M187.8,255.4l-30.5-17.6l-30.5,17.6v35.2l30.5,17.6l30.5-17.6V255.4z M156.4,236v-35.2l-30.5-17.6l-30.5,17.6V236
		l30.5,17.6L156.4,236z M124.9,255.4l-30.5-17.6l-30.5,17.6v35.2l30.5,17.6l30.5-17.6V255.4z M93.4,236v-35.2L63,183.3l-30.5,17.6
		V236L63,253.6L93.4,236z M61.9,255.4l-30.5-17.6L1,255.4v35.2l30.5,17.6l30.5-17.6V255.4z M30.5,236v-35.2L0,183.3l-30.5,17.6V236
		L0,253.6L30.5,236z M-1,255.4l-30.5-17.6L-62,255.4v35.2l30.5,17.6L-1,290.6V255.4z M-32.5,236v-35.2l-30.5-17.6l-30.5,17.6V236
		l30.5,17.6L-32.5,236z M-64,255.4l-30.5-17.6l-30.5,17.6v35.2l30.5,17.6l30.5-17.6V255.4z M-95.4,236v-35.2l-30.5-17.6l-30.5,17.6
		V236l30.5,17.6L-95.4,236z M-126.9,255.4l-30.5-17.6l-30.5,17.6v35.2l30.5,17.6l30.5-17.6V255.4z M-158.3,236v-35.2l-30.5-17.6
		l-30.5,17.6V236l30.5,17.6L-158.3,236z M-189.8,255.4l-30.5-17.6l-30.5,17.6v35.2l30.5,17.6l30.5-17.6V255.4z M-221.3,236v-35.2
		l-30.5-17.6l-30.5,17.6V236l30.5,17.6L-221.3,236z M-252.8,255.4l-30.5-17.6l-30.5,17.6v35.2l30.5,17.6l30.5-17.6V255.4z
		 M-284.2,236v-35.2l-30.5-17.6l-30.5,17.6V236l30.5,17.6L-284.2,236z M-284.2,126.8V91.6L-314.7,74l-30.5,17.6v35.2l30.5,17.6
		L-284.2,126.8z M-284.2,17.5v-35.2l-30.5-17.6l-30.5,17.6v35.2l30.5,17.6L-284.2,17.5z M-284.2-91.6v-35.2l-30.5-17.6l-30.5,17.6
		v35.2l30.5,17.6L-284.2-91.6z M-284.2-200.7v-35.2l-30.5-17.6l-30.5,17.6v35.2l30.5,17.6L-284.2-200.7z M-313.7-255.4l30.5,17.6
		l30.5-17.6v-35.2l-30.5-17.6l-30.5,17.6V-255.4z M-282.2-235.9v35.2l30.5,17.6l30.5-17.6v-35.2l-30.5-17.6L-282.2-235.9z
		 M-250.8-255.4l30.5,17.6l30.5-17.6v-35.2l-30.5-17.6l-30.5,17.6V-255.4z M-219.3-235.9v35.2l30.5,17.6l30.5-17.6v-35.2l-30.5-17.6
		L-219.3-235.9z M-187.8-255.4l30.5,17.6l30.5-17.6v-35.2l-30.5-17.6l-30.5,17.6V-255.4z M-156.3-235.9v35.2l30.5,17.6l30.5-17.6
		v-35.2l-30.5-17.6L-156.3-235.9z M-124.9-255.4l30.5,17.6l30.5-17.6v-35.2l-30.5-17.6l-30.5,17.6V-255.4z M-93.4-235.9v35.2
		l30.5,17.6l30.5-17.6v-35.2l-30.5-17.6L-93.4-235.9z M-62-255.4l30.5,17.6L-1-255.4v-35.2l-30.5-17.6L-62-290.6V-255.4z
		 M-30.5-235.9v35.2L0-183.1l30.5-17.6v-35.2L0-253.5L-30.5-235.9z M1-255.4l30.5,17.6l30.5-17.6v-35.2l-30.5-17.6L1-290.6V-255.4z
		 M32.5-235.9v35.2L63-183.1l30.5-17.6v-35.2L63-253.5L32.5-235.9z M63.9-255.4l30.5,17.6l30.5-17.6v-35.2l-30.5-17.6l-30.5,17.6
		V-255.4z M95.4-235.9v35.2l30.5,17.6l30.5-17.6v-35.2l-30.5-17.6L95.4-235.9z M126.9-255.4l30.5,17.6l30.5-17.6v-35.2l-30.5-17.6
		l-30.5,17.6V-255.4z M158.4-235.9v35.2l30.5,17.6l30.5-17.6v-35.2l-30.5-17.6L158.4-235.9z M189.8-255.4l30.5,17.6l30.5-17.6v-35.2
		l-30.5-17.6l-30.5,17.6V-255.4z M221.3-235.9v35.2l30.5,17.6l30.5-17.6v-35.2l-30.5-17.6L221.3-235.9z M252.7-255.4l30.5,17.6
		l30.5-17.6v-35.2l-30.5-17.6l-30.5,17.6V-255.4z M282.2,310l-30.5-17.6L221.3,310v35.2h60.9V310z M219.3,310l-30.5-17.6L158.4,310
		v35.2h60.9V310z M156.4,310l-30.5-17.6L95.4,310v35.2h60.9V310z M93.4,310L63,292.4L32.5,310v35.2h60.9V310z M30.5,310L0,292.4
		L-30.5,310v35.2h60.9V310z M-32.5,310l-30.5-17.6L-93.4,310v35.2h60.9V310z M-95.4,310l-30.5-17.6l-30.5,17.6v35.2h60.9V310z
		 M-158.3,310l-30.5-17.6l-30.5,17.6v35.2h60.9V310z M-221.3,310l-30.5-17.6l-30.5,17.6v35.2h60.9V310z M-284.2,310l-30.5-17.6
		l-30.5,17.6v35.2h60.9V310z M-315.7,290.6v-35.2l-29.4-17v69.2L-315.7,290.6z M-315.7,181.3v-35.2l-29.4-17v69.2L-315.7,181.3z
		 M-315.7,72.2V37l-29.4-17v69.2L-315.7,72.2z M-315.7-37v-35.2l-29.4-17V-20L-315.7-37z M-315.7-146.2v-35.2l-29.4-17v69.2
		L-315.7-146.2z M-315.7-255.4v-35.2l-29.4-17v69.2L-315.7-255.4z M-345.1-310l30.5,17.6l30.5-17.6v-35.2h-60.9V-310z M-282.2-310
		l30.5,17.6l30.5-17.6v-35.2h-60.9V-310z M-219.3-310l30.5,17.6l30.5-17.6v-35.2h-60.9V-310z M-156.3-310l30.5,17.6l30.5-17.6v-35.2
		h-60.9V-310z M-93.4-310l30.5,17.6l30.5-17.6v-35.2h-60.9V-310z M-30.5-310L0-292.4L30.5-310v-35.2h-60.9V-310z M32.5-310L63-292.4
		L93.4-310v-35.2H32.5V-310z M95.4-310l30.5,17.6l30.5-17.6v-35.2H95.4V-310z M158.4-310l30.5,17.6l30.5-17.6v-35.2h-60.9V-310z
		 M221.3-310l30.5,17.6l30.5-17.6v-35.2h-60.9V-310z M284.2-310l30.5,17.6l30.4-17.6v-35.2h-60.9V-310z M315.7-290.6v35.2l29.5,17
		v-69.2L315.7-290.6z M315.7-181.3v35.2l29.5,17v-69.2L315.7-181.3z M315.7-72.2V-37l29.5,17v-69.2L315.7-72.2z M315.7,37v35.2
		l29.5,17V20L315.7,37z M315.7,146.2v35.2l29.5,17v-69.2L315.7,146.2z M315.7,255.4v35.2l29.5,17v-69.2L315.7,255.4z"/>
</symbol>
<g>
	<path class="st2" d="M121.4,32.4h-6.1v-3.9H132v3.9h-6.1v17h-4.5V32.4z"/>
	<path class="st2" d="M149.8,40.6h-9.9v8.8h-4.5V28.5h4.5v8.2h9.9v-8.2h4.5v20.9h-4.5V40.6z"/>
	<path class="st2" d="M158.4,28.5h14.8v3.8h-10.4v4.5H173v3.8h-10.1v4.9h10.4v3.9h-14.8V28.5z"/>
	<path class="st2" d="M189.6,32.4h-6.1v-3.9h16.7v3.9H194v17h-4.5V32.4z"/>
	<path class="st2" d="M212.8,28.1c6.3,0,10.9,4.5,10.9,10.8c0,6.3-4.6,10.8-10.9,10.8c-6.3,0-10.9-4.5-10.9-10.8
		C201.9,32.7,206.5,28.1,212.8,28.1z M212.8,32.1c-3.9,0-6.3,2.9-6.3,6.9c0,3.9,2.5,6.9,6.3,6.9c3.9,0,6.4-3,6.4-6.9
		C219.1,35,216.6,32.1,212.8,32.1z"/>
	<path class="st2" d="M232,35.4v14.1h-4.5V28.5h4.6l9.7,13.6V28.5h4.5v20.9h-4.3L232,35.4z"/>
	<path class="st2" d="M257.5,40.8l-8.1-12.4h5.1l5.2,8.4l5.1-8.4h5.1l-8,12.4v8.6h-4.5V40.8z"/>
	<path class="st2" d="M287.6,41.9h-3.3v7.5h-4.5V28.5h9.8c4.4,0,7,2.9,7,6.7c0,3.7-2.3,5.7-4.6,6.2l4.7,8h-5.1L287.6,41.9z
		 M289,32.3h-4.7v5.8h4.7c1.8,0,3.1-1.1,3.1-2.9C292.2,33.4,290.8,32.3,289,32.3z"/>
	<path class="st2" d="M310,28.1c6.3,0,10.9,4.5,10.9,10.8c0,6.3-4.6,10.8-10.9,10.8c-6.3,0-10.9-4.5-10.9-10.8
		C299.1,32.7,303.7,28.1,310,28.1z M310,32.1c-3.9,0-6.3,2.9-6.3,6.9c0,3.9,2.5,6.9,6.3,6.9s6.4-3,6.4-6.9
		C316.4,35,313.8,32.1,310,32.1z"/>
	<path class="st2" d="M324.7,28.5h11c4,0,6,2.5,6,5.3c0,2.6-1.6,4.4-3.6,4.8c2.2,0.3,4,2.5,4,5.1c0,3.1-2.1,5.6-6.1,5.6h-11.4V28.5z
		 M334.7,36.9c1.5,0,2.4-1,2.4-2.3c0-1.3-0.9-2.3-2.4-2.3h-5.6v4.6H334.7z M334.9,45.6c1.7,0,2.7-1,2.7-2.5c0-1.3-0.9-2.4-2.7-2.4
		h-5.7v4.9H334.9z"/>
	<path class="st2" d="M345.5,28.5h11c4,0,6,2.5,6,5.3c0,2.6-1.6,4.4-3.6,4.8c2.2,0.3,4,2.5,4,5.1c0,3.1-2.1,5.6-6.1,5.6h-11.4V28.5z
		 M355.6,36.9c1.5,0,2.4-1,2.4-2.3c0-1.3-0.9-2.3-2.4-2.3H350v4.6H355.6z M355.7,45.6c1.7,0,2.7-1,2.7-2.5c0-1.3-0.9-2.4-2.7-2.4
		H350v4.9H355.7z"/>
	<path class="st2" d="M366.9,28.5h4.5v20.9h-4.5V28.5z"/>
	<path class="st2" d="M380,35.4v14.1h-4.5V28.5h4.6l9.7,13.6V28.5h4.5v20.9H390L380,35.4z"/>
	<path class="st2" d="M400,43.1c1.5,1.5,3.8,2.8,6.7,2.8c2.4,0,3.6-1.2,3.6-2.4c0-1.6-1.8-2.1-4.2-2.7c-3.4-0.8-7.8-1.7-7.8-6.4
		c0-3.5,3-6.3,7.9-6.3c3.3,0,6.1,1,8.2,2.9l-2.5,3.3c-1.7-1.6-4-2.3-6-2.3c-2,0-3.1,0.9-3.1,2.1c0,1.4,1.8,1.9,4.2,2.4
		c3.5,0.8,7.8,1.8,7.8,6.5c0,3.8-2.7,6.7-8.4,6.7c-4,0-6.9-1.3-8.9-3.3L400,43.1z"/>
	<path class="st2" d="M119.5,57.4h13.3V59h-11.5v7.7h11.3v1.6h-11.3v9.9h-1.8V57.4z"/>
	<path class="st2" d="M157.3,57c6.1,0,10.2,4.7,10.2,10.8c0,6.1-4,10.8-10.2,10.8c-6.1,0-10.2-4.7-10.2-10.8
		C147.2,61.7,151.2,57,157.3,57z M157.3,58.6c-5.1,0-8.3,3.9-8.3,9.2c0,5.3,3.2,9.2,8.3,9.2c5,0,8.3-3.9,8.3-9.2
		C165.6,62.5,162.4,58.6,157.3,58.6z"/>
	<path class="st2" d="M183.3,57.4h1.8v12.9c0,4.2,2.2,6.8,6.3,6.8c4.1,0,6.3-2.6,6.3-6.8V57.4h1.8v12.9c0,5.2-2.8,8.4-8.2,8.4
		c-5.4,0-8.2-3.3-8.2-8.4V57.4z"/>
	<path class="st2" d="M218.1,60.2v18.1h-1.8V57.4h1.8l13.1,17.8V57.4h1.8v20.9h-1.8L218.1,60.2z"/>
	<path class="st2" d="M249.7,57.4h6.7c6.5,0,10.6,4.7,10.6,10.5c0,5.8-4.1,10.4-10.6,10.4h-6.7V57.4z M256.3,76.6
		c5.5,0,8.7-3.9,8.7-8.8c0-4.9-3.1-8.8-8.7-8.8h-4.9v17.7H256.3z"/>
	<path class="st2" d="M294.7,73.1h-11.1l-2.1,5.1h-2l8.6-20.9h2.2l8.6,20.9h-2L294.7,73.1z M284.1,71.5h10l-5-12.4L284.1,71.5z"/>
	<path class="st2" d="M316.5,59h-6.8v-1.6h15.5V59h-6.8v19.3h-1.8V59z"/>
	<path class="st2" d="M340.2,57.4h1.8v20.9h-1.8V57.4z"/>
	<path class="st2" d="M368,57c6.1,0,10.2,4.7,10.2,10.8c0,6.1-4,10.8-10.2,10.8c-6.1,0-10.2-4.7-10.2-10.8
		C357.9,61.7,361.9,57,368,57z M368,58.6c-5.1,0-8.3,3.9-8.3,9.2c0,5.3,3.2,9.2,8.3,9.2c5,0,8.3-3.9,8.3-9.2
		C376.3,62.5,373.1,58.6,368,58.6z"/>
	<path class="st2" d="M395.8,60.2v18.1h-1.8V57.4h1.8L409,75.2V57.4h1.8v20.9H409L395.8,60.2z"/>
</g>
<path class="st3" d="M91.3,57C91.3,57,91.3,57,91.3,57L91.3,57C91.2,57,91.2,57,91.3,57z"/>
<path class="st1" d="M91.4,57L91.2,57C91.2,57,91.2,57,91.4,57C91.3,57,91.3,57,91.4,57z"/>
<g>
	<g>
		<path class="st4" d="M82.6,58.5c1.5,0.2,2.9,0.4,4.2,0.6L82.9,61L82.6,58.5z"/>
		<path class="st4" d="M91.3,53.4c0,1.2-0.1,2.4-0.2,3.6c-0.1,0-0.2,0-0.3,0c-0.8,0-1.5,0.4-1.8,1.1l-1,0.5c-0.2,0-0.5-0.1-0.8-0.1
			c-1.5-0.2-3.1-0.4-4.8-0.7l-4.3-32C86.2,32.3,91.3,42.2,91.3,53.4z"/>
		<path class="st4" d="M41.9,21.9c-0.2,1-0.5,1.9-0.7,2.9L38.6,22c0.7-0.4,1.5-0.8,2.2-1.1C41.1,21.3,41.4,21.7,41.9,21.9z"/>
		<path class="st4" d="M71.2,21.3l-18.4,17L41.8,25.5c0.3-1.2,0.5-2.3,0.8-3.4h0.1c1.1,0,2-0.9,2-2c0-0.2,0-0.5-0.1-0.7
			c3.5-1.1,7.2-1.7,11-1.7C61.2,17.7,66.5,19,71.2,21.3z"/>
	</g>
	<path class="st5" d="M35.9,45.1c-0.2-0.1-0.4-0.1-0.6-0.2l1-0.4C36.2,44.7,36,44.9,35.9,45.1z"/>
	<g>
		<path class="st6" d="M55.4,78l-13.6,8.4c-1.7-0.7-3.3-1.6-4.9-2.5c0.2-0.3,0.4-0.8,0.4-1.2c0-0.7-0.3-1.3-0.8-1.6v0l3.2-12.1
			l8.9-1.6C50.9,71,53.2,74.6,55.4,78z"/>
		<path class="st6" d="M82.9,61L56,77.6c-2.1-3.2-4.3-6.7-6.6-10.5L82.9,61z"/>
		<path class="st6" d="M36.7,51.7c-0.6,5-1,10-1.3,14.8l-15.1-8.2c-0.2-1.6-0.3-3.2-0.3-4.9c0-0.9,0-1.8,0.1-2.7v0l4-1.5l10.4-3.9
			c0.5,0.2,1,0.4,1.4,0.5c0,0,0,0.1,0,0.1c0,0.9,0.6,1.6,1.4,1.9C37,49.1,36.8,50.4,36.7,51.7z"/>
		<path class="st6" d="M44,59l-4.2,9.8l-3.6-2c0.3-4.7,0.7-9.7,1.3-15.1c0.1-1.3,0.3-2.6,0.5-3.8c0.1,0,0.2,0,0.2,0
			c1.6,3.3,3.4,6.6,5.2,10C43.5,58.3,43.7,58.7,44,59z"/>
		<path class="st6" d="M39.4,47.1c2.8,1,5.6,1.9,8.5,2.8l-3.5,8.2c-0.1-0.2-0.2-0.4-0.3-0.6c-1.8-3.4-3.5-6.7-5.2-9.9v0
			C39.1,47.5,39.2,47.3,39.4,47.1z"/>
		<path class="st6" d="M52.9,38.2l-4.7,11h0c-3-0.9-5.8-1.9-8.4-2.8c0-0.2,0.1-0.3,0.1-0.5c0-0.9-0.6-1.6-1.3-1.9c0-0.1,0-0.2,0-0.3
			L52.9,38.2z"/>
	</g>
	<g>
		<path class="st7" d="M61.7,86.7c-0.3,0.4-0.5,0.8-0.5,1.3c0,0.2,0,0.5,0.1,0.7c-1.9,0.3-3.8,0.4-5.7,0.4c-4.9,0-9.5-1-13.8-2.8
			L55.4,78C57.6,81.2,59.7,84.1,61.7,86.7z"/>
		<path class="st7" d="M82.9,61l-3.7,19.1c-4,3.5-8.8,6.2-14.1,7.6c-0.1-1-0.9-1.8-2-1.8c-0.4,0-0.7,0.1-1,0.2
			c-1.9-2.5-4-5.3-6.2-8.6L82.9,61z"/>
		<path class="st7" d="M20.3,58.3l15.1,8.2c-0.3,5-0.4,9.8-0.4,14.1c-0.6,0.1-1,0.4-1.3,0.9C26.5,75.9,21.6,67.7,20.3,58.3z"/>
		<path class="st7" d="M39.7,68.9L36.5,81c-0.2-0.2-0.5-0.3-0.8-0.3c0-4.1,0.1-8.7,0.4-13.8L39.7,68.9z"/>
		<path class="st7" d="M53.5,50.9c-1.8-0.5-3.6-1.1-5.4-1.6l4.7-11l24.5,18.6C70.1,55.4,61.9,53.4,53.5,50.9z"/>
		<path class="st7" d="M44,59c1.5,2.8,3.1,5.5,4.7,8.2l-8.9,1.6L44,59z"/>
		<path class="st7" d="M82.9,61l-33.5,6.1c-1.7-2.8-3.4-5.8-5.1-8.9l3.5-8.2c1.8,0.6,3.6,1.1,5.4,1.7c9,2.7,17.8,4.8,25.5,6.2h0
			L82.9,61z"/>
	</g>
	<g>
		<path class="st8" d="M90.5,60.9c-1.6,7.6-5.7,14.3-11.3,19.2L82.9,61l3.9-1.9c0.1,0,0.3,0,0.4,0.1c0.5,0.1,1.1,0.1,1.7,0.2
			C89.1,60.2,89.7,60.8,90.5,60.9z"/>
		<path class="st3" d="M88.9,58.6c-0.3,0-0.5-0.1-0.8-0.1l1-0.5C89,58.2,88.9,58.4,88.9,58.6z"/>
		<path class="st8" d="M24.2,41.1c3.1,1.4,6.5,2.8,10.2,4.1L24,49.2l-4,1.5v0c0.2-3,0.8-5.9,1.8-8.7c0.2,0.1,0.4,0.1,0.7,0.1
			C23.2,42.1,23.8,41.7,24.2,41.1z"/>
		<path class="st8" d="M36.5,44.4C36.5,44.4,36.5,44.4,36.5,44.4L36.5,44.4c-0.1,0.1-0.1,0.1-0.1,0.1l-1,0.4h0
			c-4.1-1.5-7.7-3-10.9-4.5c0-0.1,0-0.2,0-0.3c0-0.8-0.5-1.5-1.2-1.8c1.4-3,3.2-5.8,5.4-8.3c0.4,0.4,0.9,0.6,1.4,0.6
			c0.1,0,0.3,0,0.4-0.1C32.1,34.8,34.1,39.5,36.5,44.4z"/>
		<path class="st8" d="M41.2,24.8c-1.3,5.7-2.5,12.2-3.5,19.1c-0.2,0-0.4,0-0.6,0.1c-2.3-4.9-4.3-9.5-5.9-13.8
			c0.5-0.3,0.9-1,0.9-1.6c0-0.6-0.2-1.1-0.6-1.5c2.2-2,4.6-3.8,7.2-5.2L41.2,24.8z"/>
		<path class="st8" d="M52.9,38.2l-14.4,5.5c0.9-6.5,2.1-12.7,3.3-18.2L52.9,38.2z"/>
		<path class="st8" d="M82.5,57.7c-1.6-0.3-3.3-0.6-5.1-0.9L52.9,38.2l18.4-17c2.5,1.2,4.8,2.7,7,4.5L82.5,57.7z"/>
		<path class="st3" d="M82.9,61l-4.2-3.2c1.3,0.2,2.6,0.5,3.8,0.7L82.9,61z"/>
	</g>
	<path class="st9" d="M35.8,45.9c0,0,0-0.1,0-0.1c-0.5-0.2-1-0.4-1.4-0.5c-3.6-1.4-7.1-2.8-10.2-4.1c-0.3,0.6-1,1-1.7,1
		c-0.2,0-0.5,0-0.7-0.1c-0.9,2.8-1.5,5.7-1.8,8.7v0c-0.1,0.9-0.1,1.8-0.1,2.7c0,1.7,0.1,3.3,0.3,4.9c1.3,9.4,6.2,17.6,13.4,23.2
		c0.3-0.4,0.8-0.8,1.3-0.9c0-4.4,0.1-9.2,0.4-14.1c0.3-4.8,0.7-9.9,1.3-14.8c0.1-1.3,0.3-2.6,0.5-3.8C36.3,47.6,35.8,46.8,35.8,45.9
		z M61.7,86.7c-2-2.6-4.1-5.5-6.2-8.7c-2.2-3.3-4.5-7-6.8-10.7c-1.6-2.7-3.2-5.4-4.7-8.2c-0.2-0.4-0.4-0.8-0.6-1.1
		c-1.8-3.4-3.6-6.7-5.2-10c-0.1,0-0.2,0-0.2,0c-0.2,1.3-0.3,2.5-0.5,3.8c-0.6,5.4-1.1,10.4-1.3,15.1c-0.3,5.1-0.4,9.7-0.4,13.8
		c0.3,0.1,0.6,0.2,0.8,0.3v0c0.5,0.4,0.8,1,0.8,1.6c0,0.4-0.1,0.8-0.4,1.2c1.6,1,3.2,1.8,4.9,2.5c4.2,1.8,8.9,2.8,13.8,2.8
		c1.9,0,3.8-0.2,5.7-0.4c-0.1-0.2-0.1-0.4-0.1-0.7C61.2,87.5,61.4,87,61.7,86.7z M78.2,25.7c-2.1-1.8-4.5-3.2-7-4.5
		c-4.7-2.3-10-3.6-15.6-3.6c-3.9,0-7.6,0.6-11,1.7c0.1,0.2,0.1,0.4,0.1,0.7c0,1.1-0.9,2-2,2h-0.1c-0.3,1.1-0.6,2.3-0.8,3.4
		c-1.2,5.5-2.4,11.6-3.3,18.2c0,0.1,0,0.2,0,0.3c0.8,0.3,1.3,1,1.3,1.9c0,0.2,0,0.4-0.1,0.5c2.7,0.9,5.5,1.9,8.4,2.8h0
		c1.7,0.6,3.5,1.1,5.4,1.6c8.4,2.5,16.6,4.5,23.9,5.9c1.8,0.3,3.5,0.6,5.1,0.9c1.7,0.3,3.3,0.5,4.8,0.7c0.3,0,0.5,0.1,0.8,0.1
		c0.3,0,0.5,0.1,0.8,0.1c0-0.2,0.1-0.4,0.2-0.6c0.3-0.7,1-1.1,1.8-1.1c0.1,0,0.2,0,0.3,0c0.1-1.2,0.2-2.4,0.2-3.6
		C91.3,42.2,86.2,32.3,78.2,25.7z M88.9,59.4c-0.6-0.1-1.1-0.1-1.7-0.2c-0.1,0-0.3,0-0.4-0.1c-1.3-0.2-2.8-0.4-4.2-0.6
		c-1.2-0.2-2.5-0.4-3.8-0.7h0c-7.7-1.4-16.4-3.6-25.5-6.2c-1.8-0.5-3.6-1.1-5.4-1.7c-2.9-0.9-5.7-1.9-8.5-2.8
		c-0.1,0.2-0.3,0.4-0.5,0.5v0c1.6,3.2,3.3,6.6,5.2,9.9c0.1,0.2,0.2,0.4,0.3,0.6c1.7,3.1,3.4,6.1,5.1,8.9c2.3,3.8,4.5,7.3,6.6,10.5
		c2.2,3.3,4.3,6.1,6.2,8.6c0.3-0.2,0.6-0.2,1-0.2c1,0,1.9,0.8,2,1.8c5.3-1.5,10.1-4.1,14.1-7.6c5.6-4.9,9.6-11.6,11.3-19.2
		C89.7,60.8,89.1,60.2,88.9,59.4z M36.5,44.4c-2.3-4.9-4.3-9.6-6-13.8c-0.1,0-0.3,0.1-0.4,0.1c-0.6,0-1.1-0.2-1.4-0.6
		c-2.2,2.5-4,5.3-5.4,8.3c0.7,0.3,1.2,1,1.2,1.8c0,0.1,0,0.2,0,0.3c3.2,1.4,6.9,2.9,10.9,4.5h0c0.2,0.1,0.4,0.1,0.6,0.2
		c0.1-0.2,0.2-0.4,0.4-0.6C36.4,44.5,36.4,44.5,36.5,44.4L36.5,44.4C36.5,44.4,36.5,44.4,36.5,44.4z M40.9,20.9
		c-0.8,0.3-1.5,0.7-2.2,1.1c-2.6,1.4-5,3.2-7.2,5.2c0.4,0.4,0.6,0.9,0.6,1.5c0,0.7-0.3,1.3-0.9,1.6c1.6,4.2,3.6,8.9,5.9,13.8
		c0.2-0.1,0.4-0.1,0.6-0.1c1-6.9,2.2-13.4,3.5-19.1c0.2-1,0.5-2,0.7-2.9C41.4,21.7,41.1,21.3,40.9,20.9z"/>
	<path class="st1" d="M36.5,44.4C36.5,44.4,36.5,44.4,36.5,44.4L36.5,44.4C36.4,44.5,36.4,44.4,36.5,44.4z"/>
</g>
</svg>
